<svg width="70" height="80" fill="none" xmlns="http://www.w3.org/2000/svg"><g clip-path="url(#a)"><path d="M5.861 71.62 0 .133l70 .144-6.198 71.341-28.538 8.247-29.403-8.247Z" fill="#1B73BA"/><path d="M35.264 72.962V6.942l28.827.096-5.14 59.068-23.687 6.856Z" fill="#1C88C7"/><path d="M56.932 15.38H12.588l1.2 8.63h21.044l-20.707 8.87 1.201 8.342h30.508l-1.105 11.65-10.33 2.015-9.368-2.397-.72-6.617h-8.6l1.152 13.76 18.45 5.13 17.68-5.609 2.258-26.897H36.56l20.37-8.438.001-8.438Z" fill="#fff"/></g><defs><clipPath id="a"><path fill="#fff" d="M0 0h70v80H0z"/></clipPath></defs></svg>