<svg width="80" height="80" fill="none" xmlns="http://www.w3.org/2000/svg"><path d="M26.677 80A13.333 13.333 0 0 0 40.01 66.667V53.333H26.677a13.333 13.333 0 0 0 0 26.667Z" fill="#0ACF83"/><path d="M13.344 40a13.333 13.333 0 0 1 13.333-13.333H40.01v26.666H26.677A13.333 13.333 0 0 1 13.344 40Z" fill="#A259FF"/><path d="M13.344 13.333A13.333 13.333 0 0 1 26.667 0H40v26.667H26.677a13.333 13.333 0 0 1-13.333-13.334Z" fill="#F24E1E"/><path d="M40.01 0h13.334a13.333 13.333 0 1 1 0 26.667H40.01V0Z" fill="#FF7262"/><path d="M66.677 40a13.333 13.333 0 1 1-26.667 0 13.333 13.333 0 0 1 26.667 0Z" fill="#1ABCFE"/></svg>