<svg width="80" height="80" fill="none" xmlns="http://www.w3.org/2000/svg"><g clip-path="url(#a)"><path fill-rule="evenodd" clip-rule="evenodd" d="M39.88 0C17.829 0 0 18.333 0 41.014c0 18.13 11.423 33.477 27.27 38.908 1.98.409 2.706-.882 2.706-1.968 0-.95-.065-4.21-.065-7.606-11.094 2.445-13.404-4.889-13.404-4.889-1.783-4.753-4.425-5.975-4.425-5.975-3.63-2.512.265-2.512.265-2.512 4.028.271 6.141 4.21 6.141 4.21 3.565 6.246 9.31 4.481 11.62 3.395.33-2.649 1.387-4.482 2.51-5.5-8.848-.951-18.158-4.482-18.158-20.236 0-4.482 1.584-8.149 4.093-11-.395-1.018-1.782-5.23.397-10.865 0 0 3.368-1.087 10.96 4.21a37.61 37.61 0 0 1 9.97-1.358c3.368 0 6.8.475 9.97 1.358 7.594-5.297 10.961-4.21 10.961-4.21 2.18 5.636.792 9.847.396 10.865 2.576 2.851 4.094 6.518 4.094 11 0 15.754-9.31 19.216-18.224 20.236 1.454 1.29 2.708 3.734 2.708 7.605 0 5.5-.066 9.914-.066 11.271 0 1.087.727 2.378 2.707 1.97 15.847-5.433 27.27-20.779 27.27-38.909C79.76 18.334 61.867 0 39.88 0Z" fill="#202025"/></g><defs><clipPath id="a"><path fill="#fff" d="M0 0h80v80H0z"/></clipPath></defs></svg>