<svg width="40" height="90" fill="none" xmlns="http://www.w3.org/2000/svg"><path d="m30.825 87.257.848-14.38 2.341-4.067s-5.329 2.219-14.25 2.219c-8.922 0-14.17-2.178-14.17-2.178l2.623 4.437.929 13.969c0 1.497 4.853 2.711 10.84 2.711 5.986 0 10.839-1.214 10.839-2.711ZM28.15 20.108l1.78-7.16 9.856-10.554L37.19.142 26.754 11.385l-2.067 8.554c-1.497-.052-3.06-.08-4.668-.08C9.03 19.86.12 21.135.12 22.707s8.91 2.847 19.9 2.847c10.99 0 19.898-1.275 19.898-2.847 0-1.157-4.832-2.154-11.768-2.598Z" fill="#D34A47"/><path d="M27.115 24.117s-.386.088-1.52.093c-1.134.005-1.94-.008-2.26-.305a.52.52 0 0 1-.133-.346c.001-.204.144-.324.325-.4l.172.274c-.075.027-.117.058-.118.09 0 .156 1.16.262 2.048.25.887-.01 1.96-.085 1.96-.238 0-.046-.08-.09-.221-.124l.17-.272c.23.072.431.213.43.456-.001.413-.518.476-.853.522Z" fill="#fff"/><path d="M39.767 2.414c.248-.29-.128-1.036-.84-1.664-.712-.627-1.49-.9-1.738-.608-.248.291.128 1.036.84 1.664.712.627 1.49.9 1.738.608ZM30.35 52.134c-.233-2.287 4.917-5.6 3.595-5.706-2.845.166-4.26 3.393-5.692 6.773-.525 1.24-2.32 6.522-3.497 5.872-1.177-.65 1.526-4.995 2.284-7.574-.874.652-4.08 3.186-4.906.813-1.328 1.148-4.166 1.77-3.846-1.246-.706 1.274-2.292 3.052-4.196 2.313-2.5-.97 1.449-9.073 2.43-8.664.982.408-.198 2.254-.507 2.971-.68 1.578-1.465 3.56-.94 3.967.899.695 3.344-2.631 3.398-2.704.458-.615 1.76-4.638 2.81-4.176 1.05.462-2.619 5.773-1.247 6.827.277.213 1.41-.131 2.098-.89.446-.49.292-1.576 1.778-5.181 1.485-3.605 2.81-8.095 3.828-7.753 1.019.342.18 2.646-.186 3.505-1.715 4.032-4.681 10.692-3.282 10.188 1.398-.504 2.126-.534 3.496-2.165 1.37-1.63 1.306-4.317 2.22-4.26.912.057.759.919.538 1.575.898-1.047 4.258-3.25 5.07-1.068.96 2.584-4.808 6.316-3.37 6.126 1.403-.186 3.675-1.65 4.645-2.982l2.67-24.428s-2.687 2.263-19.78 2.263S.259 24.314.259 24.314l2.273 22.297C3.74 43.121 6.604 36.063 11.12 36.3c2.055.108 4.797 4.133 2.448 4.27-.994.057-1.095-2.01-2.273-2.313-.85-.22-2.033.483-2.797 1.245-1.525 1.519-4.804 7.51-4.37 10.497.551 3.808 5.163-1.323 5.943-2.847.55-1.073.921-4.252 2.123-3.919 1.202.334-.105 3.615-.976 6.516-.979 3.258-1.493 6.694-2.72 6.3-1.227-.396.772-4.601.7-5.338-1.154 1.082-3.278 3.823-5.996 2.467l1.412 13.846s3.752 3.017 15.054 3.017c11.303 0 15.194-2.97 15.194-2.97l1.753-16.037c-1.434 1.421-5.973 3.945-6.264 1.1Z" fill="#D34A47"/></svg>