<svg width="90" height="90" fill="none" xmlns="http://www.w3.org/2000/svg"><g clip-path="url(#a)"><path d="M0 0h90v90H0V0Z" fill="#F0DB4F"/><path d="M82.634 68.535c-.659-4.106-3.337-7.554-11.267-10.77-2.755-1.267-5.826-2.174-6.742-4.261-.325-1.215-.367-1.9-.162-2.635.59-2.387 3.44-3.131 5.698-2.447 1.454.488 2.831 1.609 3.661 3.396 3.884-2.515 3.876-2.498 6.588-4.226-.993-1.54-1.523-2.25-2.173-2.908-2.336-2.61-5.518-3.953-10.609-3.85-.88.111-1.77.23-2.652.342-2.54.642-4.962 1.976-6.382 3.764-4.26 4.834-3.046 13.295 2.139 16.777 5.107 3.832 12.61 4.705 13.568 8.29.933 4.388-3.225 5.809-7.357 5.304-3.046-.633-4.74-2.182-6.57-4.996-3.371 1.95-3.371 1.95-6.836 3.944.821 1.796 1.685 2.609 3.063 4.166 6.519 6.613 22.833 6.288 25.76-3.721.119-.343.906-2.636.273-6.169Zm-33.707-27.17h-8.418c0 7.27-.035 14.491-.035 21.763 0 4.629.24 8.872-.513 10.172-1.232 2.558-4.423 2.242-5.877 1.746-1.48-.728-2.233-1.763-3.106-3.226-.24-.419-.419-.744-.479-.77-2.284 1.395-4.56 2.798-6.844 4.192 1.138 2.336 2.815 4.364 4.962 5.68 3.208 1.926 7.52 2.516 12.028 1.481 2.935-.856 5.467-2.626 6.793-5.321 1.917-3.533 1.506-7.811 1.489-12.542.043-7.717 0-15.434 0-23.176Z" fill="#323330"/></g><defs><clipPath id="a"><path fill="#fff" d="M0 0h90v90H0z"/></clipPath></defs></svg>