<svg width="32" height="32" fill="none" xmlns="http://www.w3.org/2000/svg"><path d="M14.75 26.004H7.245a2.501 2.501 0 0 1-2.5-2.5v-11.88a2.501 2.501 0 0 1 2.5-2.502h17.508a2.501 2.501 0 0 1 2.5 2.501V16" stroke="#fff" stroke-width="2" stroke-linecap="round" stroke-linejoin="round"/><circle cx="23.503" cy="23.503" r="5.002" stroke="#fff" stroke-width="2" stroke-linecap="round" stroke-linejoin="round"/><path d="M23.168 21.301v2.537h2.107M20.502 9.122v-2.5c0-1.037-.84-1.877-1.876-1.877h-5.252c-1.036 0-1.876.84-1.876 1.876v2.501M27.255 13.499l-5.592 1.3a25.01 25.01 0 0 1-11.326 0l-5.592-1.3" stroke="#fff" stroke-width="2" stroke-linecap="round" stroke-linejoin="round"/></svg>