<svg width="25" height="24" fill="none" xmlns="http://www.w3.org/2000/svg"><path clip-rule="evenodd" d="M3.75 4.375C2 6.25.75 8.875.75 12.25c0 2.5.875 4.875 2.25 6.75 1.625 2.125 4 3.375 5.25 3.875V22s0-2 1.125-3.75c-2.5-.125-4.5-2.5-4.5-5.25 0-1 .375-1.875 1-2.625L6 8c0-.625.625-1 1.25-.875l2.625 1c.75-.125 1.5-.25 2.375-.25s1.625.125 2.375.25L16.875 7c.625-.25 1.25.25 1.25.875l.125 2.375c.625.75 1 1.75 1 2.625 0 2.75-2 5-4.5 5.25 1.125 1.75 1.125 3.75 1.125 3.75v.875c1.25-.5 3.625-1.75 5.25-3.875 1.375-1.75 2.25-4.25 2.25-6.75 0-3.375-1.25-6-3-7.875C18 1.875 14.75.75 12 .75S6 1.875 3.75 4.375v0Z" stroke="#fff" stroke-width="1.5" stroke-linecap="round" stroke-linejoin="round"/></svg>