<svg xmlns="http://www.w3.org/2000/svg" xmlns:xlink="http://www.w3.org/1999/xlink"><symbol id="social-git" viewBox="0 0 64 64"><g style="fill-rule:evenodd;clip-rule:evenodd;stroke-linejoin:round;stroke-miterlimit:2"><path style="fill:none" d="M0-192h1280v800H0z"/><path d="M32.029 8.345C18.759 8.345 8 19.104 8 32.378c0 10.617 6.885 19.624 16.435 22.803 1.202.22 1.64-.522 1.64-1.16 0-.569-.02-2.081-.032-4.086-6.685 1.452-8.095-3.222-8.095-3.222-1.093-2.775-2.669-3.514-2.669-3.514-2.182-1.492.165-1.462.165-1.462 2.412.171 3.681 2.477 3.681 2.477 2.144 3.672 5.625 2.611 6.994 1.997.219-1.553.838-2.612 1.526-3.213-5.336-.606-10.947-2.669-10.947-11.877 0-2.623.937-4.769 2.474-6.449-.247-.608-1.072-3.051.235-6.36 0 0 2.018-.646 6.609 2.464 1.917-.533 3.973-.8 6.016-.809 2.041.009 4.097.276 6.017.809 4.588-3.11 6.602-2.464 6.602-2.464 1.311 3.309.486 5.752.239 6.36 1.54 1.68 2.471 3.826 2.471 6.449 0 9.232-5.62 11.263-10.974 11.858.864.742 1.632 2.208 1.632 4.451 0 3.212-.029 5.804-.029 6.591 0 .644.432 1.392 1.652 1.157 9.542-3.185 16.421-12.186 16.421-22.8 0-13.274-10.76-24.033-24.034-24.033" style="fill:#fff"/></g></symbol><symbol id="social-tme"><g fill="none"><path d="m21.44 1.622-3.17 14.944c-.239 1.055-.862 1.317-1.748.82l-4.828-3.557-2.33 2.24c-.258.259-.473.474-.97.474l.347-4.917 8.948-8.086c.39-.347-.084-.54-.604-.192L6.022 10.314 1.26 8.823C.224 8.5.205 7.787 1.476 7.29L20.103.113c.863-.323 1.617.192 1.336 1.51Z" fill="#fff"/></g></symbol><symbol id="social-vk"><g fill="none"><path fill-rule="evenodd" clip-rule="evenodd" d="M23.45.948c.166-.546 0-.948-.795-.948H20.03c-.668 0-.976.347-1.143.73 0 0-1.335 3.196-3.226 5.272-.612.602-.89.793-1.224.793-.167 0-.418-.191-.418-.738V.948c0-.656-.184-.948-.74-.948H9.151c-.417 0-.668.304-.668.593 0 .621.946.765 1.043 2.513v3.798c0 .833-.153.984-.487.984-.89 0-3.055-3.211-4.34-6.885C4.45.288 4.198 0 3.527 0H.9C.15 0 0 .347 0 .73c0 .682.89 4.07 4.145 8.551C6.315 12.341 9.37 14 12.153 14c1.669 0 1.875-.368 1.875-1.003v-2.313c0-.737.158-.884.687-.884.39 0 1.057.192 2.615 1.667C19.11 13.216 19.403 14 20.405 14h2.625c.75 0 1.126-.368.91-1.096-.238-.724-1.088-1.775-2.215-3.022-.612-.71-1.53-1.475-1.809-1.858-.389-.491-.278-.71 0-1.147 0 0 3.2-4.426 3.533-5.929h.001Z" fill="#fff"/></g></symbol></svg>